<svg version="1.1" id="Layer_1" xmlns="http://www.w3.org/2000/svg" xmlns:xlink="http://www.w3.org/1999/xlink" x="0px" y="0px"
	 width="100%" viewBox="0 0 500 500" enable-background="new 0 0 500 500" xml:space="preserve">
<path fill="#000000" opacity="1.000000" stroke="none" 
	d="
M501.000000,174.000000 
	C501.000000,283.333313 501.000000,392.166595 501.000000,500.999939 
	C334.333405,500.999939 167.666794,500.999939 1.000148,500.999969 
	C1.000099,334.333435 1.000099,167.666870 1.000049,1.000237 
	C167.666519,1.000158 334.333038,1.000158 500.999786,1.000079 
	C501.000000,58.500000 501.000000,116.000000 501.000000,174.000000 
M476.023193,274.023071 
	C476.023193,274.023071 476.029755,274.098694 476.560516,273.949707 
	C476.739685,273.642609 476.918854,273.335480 477.020233,273.022858 
	C477.020233,273.022858 477.056885,273.091675 477.666656,272.871826 
	C478.806793,271.598236 479.946930,270.324646 481.018036,269.018433 
	C481.018036,269.018433 481.026794,269.094299 481.554260,268.942322 
	C481.737701,268.638184 481.921112,268.334076 482.025391,268.024017 
	C482.025391,268.024017 482.030334,268.103210 482.563751,267.955597 
	C482.747070,267.648468 482.930420,267.341370 483.028687,267.028229 
	C483.028687,267.028229 483.035400,267.113220 483.564697,266.954315 
	C483.747406,266.647308 483.930115,266.340302 484.027100,266.025970 
	C484.027100,266.025970 484.031586,266.111908 484.572571,265.948120 
	C484.776276,265.640015 484.979980,265.331879 485.786530,264.761780 
	C487.657501,262.872986 489.588898,261.039734 491.386719,259.083710 
	C495.036865,255.112366 494.856567,250.610031 490.974609,246.469376 
	C488.239868,243.552414 484.024872,243.413589 480.068817,246.500290 
	C476.995361,248.898300 474.225189,251.685043 470.996002,254.590820 
	C470.996002,252.418472 470.989471,250.488266 470.997009,248.558121 
	C471.062714,231.725357 471.241089,214.928345 468.077698,198.234940 
	C464.600281,179.884552 459.893097,161.896500 451.929047,145.031784 
	C441.959320,123.919815 429.065002,104.564072 413.501373,87.109261 
	C400.589264,72.628166 385.380341,60.701023 369.197479,50.224201 
	C352.924591,39.689110 334.969208,32.354717 316.571167,26.318312 
	C299.317841,20.657495 281.487976,17.354290 263.421204,16.178221 
	C245.950119,15.040926 228.393417,15.722951 211.159271,19.130991 
	C192.591202,22.802811 174.696716,28.797260 157.549118,36.870750 
	C154.673721,38.224564 152.594238,38.358837 150.158569,35.793671 
	C141.725311,26.912031 131.487701,20.835594 119.734215,17.373772 
	C101.417107,11.978724 83.141525,12.183641 65.445068,19.397709 
	C53.242222,24.372278 43.205620,33.186222 34.915062,43.023468 
	C23.912159,56.079071 18.441299,72.129639 18.192568,89.258636 
	C17.959248,105.326225 21.882263,120.294220 31.751354,133.765625 
	C39.571552,144.440247 48.410187,153.580933 59.751774,160.245285 
	C76.497597,170.085205 95.051277,171.001038 113.148048,167.509125 
	C137.428223,162.824142 155.215881,147.642212 166.255661,125.730179 
	C170.217514,117.866562 171.005829,108.361420 172.969833,99.544724 
	C175.389786,88.681244 173.757355,78.050026 170.218964,67.689629 
	C168.453232,62.519577 166.194733,57.517826 163.941833,51.897942 
	C200.453842,36.523911 237.986496,29.491547 277.665375,34.866596 
	C320.135040,40.619701 357.227966,57.609409 388.811249,86.413208 
	C415.112091,110.399399 433.209595,140.033752 444.544891,173.458084 
	C453.563812,200.052216 456.849243,227.688919 453.362396,257.135254 
	C450.197845,252.285294 447.558441,248.488129 445.182068,244.532928 
	C442.446350,239.979599 437.600922,238.436020 432.656036,240.805191 
	C428.849426,242.628998 427.447571,247.573593 430.243683,252.233719 
	C436.664368,262.934723 443.491364,273.391998 450.059265,284.505249 
	C450.364136,284.696869 450.669006,284.888489 450.987549,285.010620 
	C450.987549,285.010620 450.917603,285.021912 451.077881,285.539856 
	C451.379242,285.718658 451.680603,285.897461 451.991760,286.008240 
	C451.991760,286.008240 451.927216,286.031891 452.010010,286.726288 
	C452.665283,287.171631 453.320557,287.616974 453.998444,288.003754 
	C453.998444,288.003754 453.940674,288.028259 454.282532,288.694489 
	C458.687653,291.090759 462.202576,289.885651 465.004791,286.001282 
	C465.004791,286.001282 465.026978,286.061584 465.520325,285.938202 
	C465.844177,285.556488 466.168060,285.174774 466.685242,284.640228 
	C466.685242,284.640228 466.827820,284.439209 467.306458,284.112122 
	C468.263092,283.080658 469.219727,282.049194 470.725861,280.809357 
	C471.491791,279.938538 472.257690,279.067688 473.615662,277.896149 
	C473.779663,277.269257 473.943665,276.642365 474.022400,276.013824 
	C474.022400,276.013824 474.028931,276.098877 474.560303,275.950287 
	C474.739960,275.643066 474.919617,275.335815 475.023468,275.023224 
	C475.023468,275.023224 475.029724,275.099030 475.560699,274.950104 
	C475.740112,274.642944 475.919525,274.335785 476.023193,274.023071 
M273.237457,437.977997 
	C272.120911,438.317719 271.004333,438.657471 269.156158,439.028656 
	C268.429169,439.085846 267.702148,439.143005 266.050629,439.036011 
	C256.381714,439.085571 246.712814,439.135101 236.128204,439.034729 
	C228.189453,438.040283 220.195023,437.365204 212.322128,435.992981 
	C186.218750,431.443054 162.389206,420.997009 140.338409,406.627625 
	C131.626877,400.950745 122.616928,395.615417 115.612823,387.344849 
	C109.225090,379.802124 100.806900,373.991852 94.309479,366.525269 
	C88.401978,359.736572 83.793877,351.800964 78.754860,344.275940 
	C66.642776,326.188324 59.345470,305.939697 52.843891,285.391602 
	C51.331032,280.610229 50.825207,275.472900 50.200424,270.456421 
	C49.202621,262.444977 48.230526,254.413269 47.749939,246.360153 
	C47.402561,240.539185 47.897041,234.669937 47.965015,228.821609 
	C48.012650,224.723160 47.974209,220.623718 47.974209,215.694016 
	C52.184086,221.317520 55.507568,226.136520 59.241116,230.613556 
	C61.819984,233.705978 66.697350,233.879303 69.907082,231.555664 
	C72.806007,229.457062 74.119331,223.970932 72.204773,220.869675 
	C65.181160,209.492584 58.128414,198.131882 50.927868,186.866486 
	C48.413857,182.933258 41.768974,181.943710 38.525898,185.108826 
	C28.872099,194.530563 19.348240,204.089081 9.935130,213.751511 
	C7.194636,216.564575 7.314605,222.680099 9.639275,225.169189 
	C12.527892,228.262146 17.500126,228.912308 21.149584,226.276611 
	C24.478100,223.872696 27.511530,221.060211 31.005854,218.152512 
	C31.005854,228.921555 30.895748,239.086197 31.052210,249.246750 
	C31.130663,254.341431 31.042454,259.576752 32.158772,264.492004 
	C35.811234,280.574188 39.283035,296.757507 44.202499,312.470459 
	C47.414513,322.729736 52.565605,332.480255 57.640045,342.038177 
	C69.032265,363.495972 84.119705,382.190277 101.651787,398.978973 
	C117.101181,413.773285 135.289413,424.545166 154.264908,433.806000 
	C167.147079,440.093048 180.649750,445.604950 194.444839,449.381897 
	C207.550873,452.970184 221.397766,453.852478 235.252518,456.765167 
	C245.558548,456.847076 255.864532,456.948120 266.170654,456.964508 
	C266.808044,456.965546 267.446472,456.299957 268.968323,455.947144 
	C270.556671,455.947144 272.145020,455.947144 273.486908,455.947144 
	C274.051788,461.301086 274.151428,466.097626 275.132385,470.706635 
	C276.940277,479.200867 286.747589,488.455658 294.269501,488.765686 
	C294.927032,488.842499 295.584595,488.986420 296.242126,488.986542 
	C346.391632,488.997803 396.541107,489.004608 446.690582,488.955383 
	C447.837250,488.954254 448.983246,488.309235 450.879883,487.975647 
	C454.378876,486.013275 458.438843,484.647217 461.274384,481.979614 
	C470.736298,473.078033 480.038147,463.964142 488.786041,454.370514 
	C491.519196,451.373077 493.717682,446.613098 493.758911,442.635040 
	C494.133636,406.478973 494.027588,370.317230 493.938538,334.157471 
	C493.916351,325.143585 484.827087,314.497803 476.180023,313.009094 
	C470.558807,312.041351 464.900787,311.287567 459.237183,310.434570 
	C459.185730,303.613281 452.034698,296.979645 445.202972,297.960144 
	C442.101196,298.405304 438.868591,298.215546 435.718079,297.992554 
	C426.426025,297.334900 421.739868,301.469727 420.532562,311.065552 
	C414.821716,311.448181 409.039185,311.835571 403.230743,312.224731 
	C402.910034,299.574677 390.104218,293.513611 369.395233,298.990753 
	C351.482269,266.524994 326.623291,241.880280 289.167786,231.592834 
	C335.290100,197.656372 327.249786,145.715439 299.794800,120.587120 
	C271.218933,94.432907 227.363281,91.734604 195.914658,126.885628 
	C183.496246,140.766052 178.690033,158.250259 180.106125,176.914734 
	C181.848755,199.882751 193.984131,217.008728 212.214600,230.583862 
	C211.156403,231.204987 210.491913,231.649124 209.782501,232.003296 
	C197.656265,238.057175 184.634521,242.829437 173.656052,250.519409 
	C163.625580,257.545380 155.483017,267.430695 147.078766,276.579773 
	C129.986862,295.186493 123.609512,318.402588 120.204651,342.626587 
	C119.709442,346.149780 121.306358,350.077332 126.352173,351.786774 
	C150.574966,351.809540 174.797745,351.832306 199.842392,351.988220 
	C201.225967,351.933228 202.609558,351.878235 204.924637,351.976685 
	C227.620239,351.939056 250.315842,351.901428 273.520782,352.081787 
	C273.724274,352.381866 273.927765,352.681915 274.008881,353.918732 
	C273.972565,381.951691 273.936249,409.984650 274.019653,438.002563 
	C274.019653,438.002563 274.009827,437.882263 273.237457,437.977997 
z"/>
<path fill="#5AA4FA" opacity="1.000000" stroke="none" 
	d="
M293.921570,487.934753 
	C286.747589,488.455658 276.940277,479.200867 275.132385,470.706635 
	C274.151428,466.097626 274.051788,461.301086 273.486908,455.947144 
	C272.145020,455.947144 270.556671,455.947144 268.051147,455.928101 
	C256.395630,455.914246 245.657257,455.919403 234.918900,455.924591 
	C221.397766,453.852478 207.550873,452.970184 194.444839,449.381897 
	C180.649750,445.604950 167.147079,440.093048 154.264908,433.806000 
	C135.289413,424.545166 117.101181,413.773285 101.651787,398.978973 
	C84.119705,382.190277 69.032265,363.495972 57.640045,342.038177 
	C52.565605,332.480255 47.414513,322.729736 44.202499,312.470459 
	C39.283035,296.757507 35.811234,280.574188 32.158772,264.492004 
	C31.042454,259.576752 31.130663,254.341431 31.052210,249.246750 
	C30.895748,239.086197 31.005854,228.921555 31.005854,218.152512 
	C27.511530,221.060211 24.478100,223.872696 21.149584,226.276611 
	C17.500126,228.912308 12.527892,228.262146 9.639275,225.169189 
	C7.314605,222.680099 7.194636,216.564575 9.935130,213.751511 
	C19.348240,204.089081 28.872099,194.530563 38.525898,185.108826 
	C41.768974,181.943710 48.413857,182.933258 50.927868,186.866486 
	C58.128414,198.131882 65.181160,209.492584 72.204773,220.869675 
	C74.119331,223.970932 72.806007,229.457062 69.907082,231.555664 
	C66.697350,233.879303 61.819984,233.705978 59.241116,230.613556 
	C55.507568,226.136520 52.184086,221.317520 47.974209,215.694016 
	C47.974209,220.623718 48.012650,224.723160 47.965015,228.821609 
	C47.897041,234.669937 47.402561,240.539185 47.749939,246.360153 
	C48.230526,254.413269 49.202621,262.444977 50.200424,270.456421 
	C50.825207,275.472900 51.331032,280.610229 52.843891,285.391602 
	C59.345470,305.939697 66.642776,326.188324 78.754860,344.275940 
	C83.793877,351.800964 88.401978,359.736572 94.309479,366.525269 
	C100.806900,373.991852 109.225090,379.802124 115.612823,387.344849 
	C122.616928,395.615417 131.626877,400.950745 140.338409,406.627625 
	C162.389206,420.997009 186.218750,431.443054 212.322128,435.992981 
	C220.195023,437.365204 228.189453,438.040283 236.908203,439.365540 
	C241.449310,439.806458 245.214096,440.076782 248.970657,439.990021 
	C254.975037,439.851410 260.973938,439.475677 266.975159,439.200195 
	C267.702148,439.143005 268.429169,439.085846 269.907867,439.033203 
	C271.776337,438.652557 272.893066,438.267395 274.009827,437.882263 
	C274.009827,437.882263 274.019653,438.002563 274.297913,437.753082 
	C274.721344,436.529236 274.992218,435.554962 274.993225,434.580444 
	C275.019562,408.623871 275.030426,382.667236 274.983551,356.710724 
	C274.981293,355.467316 274.427979,354.224854 274.131287,352.981964 
	C273.927765,352.681915 273.724274,352.381866 272.955841,351.691589 
	C250.178711,351.209259 227.966522,351.110992 205.754242,351.058777 
	C205.167816,351.057404 204.580200,351.557190 203.993134,351.823242 
	C202.609558,351.878235 201.225967,351.933228 199.116486,351.645508 
	C196.903946,351.193359 195.417358,350.989197 193.930664,350.988586 
	C171.266510,350.979431 148.602356,350.996887 125.938202,351.008118 
	C121.306358,350.077332 119.709442,346.149780 120.204651,342.626587 
	C123.609512,318.402588 129.986862,295.186493 147.078766,276.579773 
	C155.483017,267.430695 163.625580,257.545380 173.656052,250.519409 
	C184.634521,242.829437 197.656265,238.057175 209.782501,232.003296 
	C210.491913,231.649124 211.156403,231.204987 212.214600,230.583862 
	C193.984131,217.008728 181.848755,199.882751 180.106125,176.914734 
	C178.690033,158.250259 183.496246,140.766052 195.914658,126.885628 
	C227.363281,91.734604 271.218933,94.432907 299.794800,120.587120 
	C327.249786,145.715439 335.290100,197.656372 289.167786,231.592834 
	C326.623291,241.880280 351.482269,266.524994 369.395233,298.990753 
	C390.104218,293.513611 402.910034,299.574677 403.230743,312.224731 
	C409.039185,311.835571 414.821716,311.448181 420.532562,311.065552 
	C421.739868,301.469727 426.426025,297.334900 435.718079,297.992554 
	C438.868591,298.215546 442.101196,298.405304 445.202972,297.960144 
	C452.034698,296.979645 459.185730,303.613281 459.237183,310.434570 
	C464.900787,311.287567 470.558807,312.041351 476.180023,313.009094 
	C484.827087,314.497803 493.916351,325.143585 493.938538,334.157471 
	C494.027588,370.317230 494.133636,406.478973 493.758911,442.635040 
	C493.717682,446.613098 491.519196,451.373077 488.786041,454.370514 
	C480.038147,463.964142 470.736298,473.078033 461.274384,481.979614 
	C458.438843,484.647217 454.378876,486.013275 450.026611,487.949799 
	C397.422760,487.927551 345.672180,487.931152 293.921570,487.934753 
M441.729889,314.503082 
	C440.821106,314.707672 439.912292,314.912292 438.982697,315.010040 
	C438.982697,315.010040 439.088928,314.986481 438.412994,315.493774 
	C438.556824,320.327057 438.700623,325.160370 439.227875,330.690338 
	C444.090729,331.657349 441.046875,327.525269 442.706696,325.445587 
	C442.442261,321.958374 442.177856,318.471130 442.021423,315.012177 
	C442.021423,315.012177 441.996857,315.121094 441.729889,314.503082 
M441.961853,471.440704 
	C441.961853,471.440704 441.956116,470.958405 442.023010,470.028534 
	C442.024445,464.706146 442.001312,459.383606 442.032471,454.061401 
	C442.097198,443.004791 446.769928,437.319885 457.907013,437.886810 
	C464.179932,438.206116 470.714172,439.221222 477.196503,436.399414 
	C477.196503,432.872314 477.196503,429.395782 477.706421,425.282959 
	C477.802460,409.215363 477.912170,393.147797 477.947876,377.080078 
	C477.949402,376.391266 477.267365,375.700989 475.978638,374.997955 
	C419.114655,374.989807 362.250641,374.975891 305.386658,374.984558 
	C300.906006,374.985260 296.425323,375.143219 291.321228,375.729034 
	C291.202881,376.543213 290.981506,377.357300 290.981049,378.171539 
	C290.964996,406.142517 290.959015,434.113525 291.007446,462.084412 
	C291.009613,463.333099 291.533722,464.580872 291.933167,466.588013 
	C293.250824,468.126343 294.568481,469.664703 295.959717,471.561859 
	C295.959717,471.561859 295.997253,471.926300 296.551575,472.559570 
	C297.524445,472.706085 298.497253,472.980225 299.470184,472.980713 
	C345.594940,473.003204 391.719727,473.011353 437.844421,472.958130 
	C439.217621,472.956573 440.590057,472.283173 441.961853,471.440704 
M139.344833,334.652313 
	C140.156265,334.776520 140.967651,335.009064 141.779160,335.009460 
	C184.659103,335.030762 227.539062,335.040710 270.418945,334.992188 
	C271.585480,334.990875 272.751282,334.336884 274.007019,333.198395 
	C275.633972,325.238098 279.128174,318.410004 286.442017,314.294586 
	C290.651245,311.926117 295.147827,310.059692 299.553650,308.052002 
	C302.825104,306.561218 305.145477,304.719238 305.136353,300.547729 
	C305.123779,294.797729 305.900513,289.049347 305.985199,283.295074 
	C306.149323,272.142761 303.075745,268.981232 291.745911,267.979156 
	C287.307587,267.586609 284.236694,269.225983 282.180664,273.314362 
	C278.896484,279.844940 275.356232,286.248840 271.836548,292.658112 
	C269.852020,296.271912 270.880371,298.757721 275.069336,300.099792 
	C282.980438,302.634399 285.445526,310.286438 278.962097,315.642303 
	C276.916443,317.332214 275.163086,319.375488 273.271606,321.252655 
	C269.929688,324.569336 266.009369,324.903809 261.985687,322.972717 
	C257.838470,320.982269 257.976807,317.031708 257.969910,313.140839 
	C257.966614,311.285309 257.427307,309.403961 256.951050,307.581268 
	C255.736786,302.934021 252.181290,297.458344 253.561890,293.840240 
	C257.893768,282.487671 263.462128,271.473877 269.732147,261.038177 
	C274.323151,253.397049 282.159821,249.877289 292.231049,251.222107 
	C291.072968,250.318085 290.659851,249.805725 290.129669,249.609131 
	C270.432648,242.305038 250.269562,241.212723 229.638046,244.626724 
	C224.496628,245.477509 221.481110,248.986771 219.461700,252.482040 
	C214.210281,261.571442 210.900681,271.519257 210.628143,282.169159 
	C222.043030,287.717010 225.983841,298.396393 222.972321,306.983521 
	C220.434113,314.221039 215.535385,319.208801 207.969376,320.923523 
	C198.495880,323.070526 191.285370,318.891449 186.185898,311.371613 
	C181.704376,304.763031 181.249725,297.036957 186.352463,290.831696 
	C190.830917,285.385590 194.577759,280.532104 194.797623,272.944061 
	C194.969376,267.016235 197.384628,261.153381 199.163712,253.763214 
	C191.378052,258.818451 183.950958,262.409485 178.117279,267.743286 
	C170.974167,274.274292 165.111694,282.218903 158.791733,289.634308 
	C147.888382,302.427521 142.472244,317.704407 139.344833,334.652313 
M304.577637,161.255432 
	C302.894501,152.024673 298.798431,143.658676 292.900452,136.717682 
	C272.613342,112.842850 237.799652,109.806732 213.904007,131.750748 
	C200.230209,144.307739 194.918167,160.459900 197.171524,178.698257 
	C198.718628,191.220139 204.115845,202.469223 213.652191,210.890060 
	C226.497849,222.233109 241.358704,227.929672 258.981476,225.109543 
	C272.768402,222.903275 284.023804,216.537003 292.889618,206.047653 
	C303.630981,193.339233 306.509491,178.290680 304.577637,161.255432 
M290.943298,352.368713 
	C290.129852,357.046539 292.204193,358.168121 296.721497,358.157074 
	C355.187378,358.014130 413.653748,358.062500 472.119995,358.060120 
	C473.285583,358.060089 474.542877,358.296387 475.588745,357.934662 
	C476.481720,357.625793 477.799866,356.601715 477.786713,355.915985 
	C477.643372,348.456879 477.778442,340.934692 476.792450,333.569611 
	C476.120117,328.547394 469.467346,326.105286 461.748566,327.065094 
	C456.491241,327.718811 458.294678,331.898499 458.099609,334.862061 
	C457.752228,340.139923 456.096313,344.815033 450.453094,345.636749 
	C444.321777,346.529510 437.972351,346.713806 431.791260,346.243896 
	C426.098297,345.811096 423.411011,341.386688 422.212433,336.113953 
	C421.548981,333.195374 421.844360,328.986176 420.033539,327.680664 
	C417.912567,326.151520 413.971191,327.146454 410.819397,327.049316 
	C410.486542,327.039062 410.153137,327.047424 409.819977,327.047302 
	C402.292755,327.044189 402.292755,327.044189 402.007751,334.514618 
	C401.742523,341.466858 396.570679,346.734161 389.662476,346.940857 
	C385.834747,347.055420 381.997498,347.067444 378.170532,346.942474 
	C372.344910,346.752258 367.157593,342.342010 366.122253,336.839813 
	C365.533264,333.709656 366.033722,329.031891 364.201508,327.807526 
	C361.737244,326.160736 357.495209,327.173920 354.016235,327.046600 
	C353.849884,327.040497 353.683136,327.045776 353.516571,327.045837 
	C346.190369,327.049042 346.190308,327.049042 345.980011,334.305878 
	C345.770416,341.537628 340.572906,346.775452 333.344421,346.945618 
	C329.848328,347.027893 326.347656,347.022919 322.851074,346.954315 
	C314.773529,346.795898 310.030853,341.888214 309.960602,333.698212 
	C309.903595,327.057404 309.903656,327.057159 303.329834,327.045166 
	C302.496979,327.043640 301.663727,327.029968 300.831329,327.049500 
	C294.522614,327.197479 291.004486,330.689301 290.956085,336.909943 
	C290.918488,341.740204 290.943420,346.570953 290.943298,352.368713 
M338.035553,282.485107 
	C332.851196,276.754211 327.666870,271.023285 322.482513,265.292389 
	C321.759094,265.765289 321.035675,266.238190 320.312256,266.711060 
	C326.941254,276.630951 321.907318,287.502106 323.175537,298.038605 
	C327.505768,298.038605 331.325226,297.945068 335.138275,298.061676 
	C340.225342,298.217194 345.141693,302.041534 346.009705,306.336121 
	C347.032043,311.394165 351.051208,313.030701 356.386108,309.658997 
	C350.431030,300.753815 344.491699,291.872223 338.035553,282.485107 
M325.955322,318.710388 
	C325.955322,322.667236 325.955322,326.624115 325.955322,330.580963 
	C326.419220,330.870422 326.883118,331.159851 327.347015,331.449310 
	C328.232452,330.388123 329.802734,329.375336 329.881744,328.257141 
	C330.182983,323.994659 330.003326,319.698151 330.003326,315.414368 
	C329.532471,315.128448 329.061584,314.842529 328.590729,314.556641 
	C327.711456,315.624969 326.832184,316.693329 325.955322,318.710388 
M382.008789,323.466675 
	C383.003052,325.939148 379.531494,330.758301 385.049347,331.115143 
	C385.049347,326.474945 385.166626,322.421600 384.974792,318.382935 
	C384.920349,317.236542 383.965027,316.132935 383.422852,315.009705 
	C382.946991,316.196167 382.277435,317.346710 382.048920,318.579041 
	C381.813110,319.850494 382.006317,321.201569 382.008789,323.466675 
M204.921127,304.443237 
	C205.405334,302.620850 206.229218,300.789398 206.181107,298.981201 
	C206.165253,298.385071 203.517426,297.081207 202.744919,297.462433 
	C201.539825,298.057068 199.904190,300.313110 200.234711,300.976562 
	C201.005051,302.522858 202.838333,303.539581 204.921127,304.443237 
M463.528046,456.949890 
	C464.679352,453.608368 464.679352,453.608368 459.410126,454.597351 
	C459.410126,456.227844 459.410126,457.884766 459.410126,460.346832 
	C461.034393,459.052032 462.018494,458.267578 463.528046,456.949890 
z"/>
<path fill="#5AA4F9" opacity="1.000000" stroke="none" 
	d="
M450.153412,283.948181 
	C443.491364,273.391998 436.664368,262.934723 430.243683,252.233719 
	C427.447571,247.573593 428.849426,242.628998 432.656036,240.805191 
	C437.600922,238.436020 442.446350,239.979599 445.182068,244.532928 
	C447.558441,248.488129 450.197845,252.285294 453.362396,257.135254 
	C456.849243,227.688919 453.563812,200.052216 444.544891,173.458084 
	C433.209595,140.033752 415.112091,110.399399 388.811249,86.413208 
	C357.227966,57.609409 320.135040,40.619701 277.665375,34.866596 
	C237.986496,29.491547 200.453842,36.523911 163.941833,51.897942 
	C166.194733,57.517826 168.453232,62.519577 170.218964,67.689629 
	C173.757355,78.050026 175.389786,88.681244 172.969833,99.544724 
	C171.005829,108.361420 170.217514,117.866562 166.255661,125.730179 
	C155.215881,147.642212 137.428223,162.824142 113.148048,167.509125 
	C95.051277,171.001038 76.497597,170.085205 59.751774,160.245285 
	C48.410187,153.580933 39.571552,144.440247 31.751354,133.765625 
	C21.882263,120.294220 17.959248,105.326225 18.192568,89.258636 
	C18.441299,72.129639 23.912159,56.079071 34.915062,43.023468 
	C43.205620,33.186222 53.242222,24.372278 65.445068,19.397709 
	C83.141525,12.183641 101.417107,11.978724 119.734215,17.373772 
	C131.487701,20.835594 141.725311,26.912031 150.158569,35.793671 
	C152.594238,38.358837 154.673721,38.224564 157.549118,36.870750 
	C174.696716,28.797260 192.591202,22.802811 211.159271,19.130991 
	C228.393417,15.722951 245.950119,15.040926 263.421204,16.178221 
	C281.487976,17.354290 299.317841,20.657495 316.571167,26.318312 
	C334.969208,32.354717 352.924591,39.689110 369.197479,50.224201 
	C385.380341,60.701023 400.589264,72.628166 413.501373,87.109261 
	C429.065002,104.564072 441.959320,123.919815 451.929047,145.031784 
	C459.893097,161.896500 464.600281,179.884552 468.077698,198.234940 
	C471.241089,214.928345 471.062714,231.725357 470.997009,248.558121 
	C470.989471,250.488266 470.996002,252.418472 470.996002,254.590820 
	C474.225189,251.685043 476.995361,248.898300 480.068817,246.500290 
	C484.024872,243.413589 488.239868,243.552414 490.974609,246.469376 
	C494.856567,250.610031 495.036865,255.112366 491.386719,259.083710 
	C489.588898,261.039734 487.657501,262.872986 485.221252,264.987671 
	C484.447845,265.513000 484.239716,265.812439 484.031555,266.111877 
	C484.031586,266.111908 484.027100,266.025970 483.817749,266.126526 
	C483.417419,266.522461 483.226410,266.817841 483.035400,267.113220 
	C483.035400,267.113220 483.028687,267.028229 482.819153,267.126404 
	C482.416504,267.517487 482.223419,267.810333 482.030334,268.103210 
	C482.030334,268.103210 482.025391,268.024017 481.815125,268.123169 
	C481.412170,268.512939 481.219482,268.803619 481.026794,269.094299 
	C481.026794,269.094299 481.018036,269.018433 480.667236,269.019714 
	C479.229919,270.377869 478.143402,271.734772 477.056885,273.091675 
	C477.056885,273.091675 477.020233,273.022858 476.809753,273.122284 
	C476.409424,273.514038 476.219574,273.806366 476.029755,274.098694 
	C476.029755,274.098694 476.023193,274.023071 475.811554,274.122528 
	C475.409851,274.514313 475.219788,274.806671 475.029724,275.099030 
	C475.029724,275.099030 475.023468,275.023224 474.811829,275.122650 
	C474.409760,275.514343 474.219360,275.806610 474.028931,276.098877 
	C474.028931,276.098877 474.022400,276.013824 473.778870,276.179138 
	C473.364746,276.961914 473.194183,277.579376 473.023590,278.196838 
	C472.257690,279.067688 471.491791,279.938538 470.049255,280.901978 
	C467.298065,281.236816 465.499969,281.683319 466.827820,284.439209 
	C466.827820,284.439209 466.685242,284.640228 466.293335,284.565125 
	C465.609955,285.013855 465.318451,285.537720 465.026978,286.061584 
	C465.026978,286.061584 465.004791,286.001282 464.627136,286.000427 
	C460.813232,286.675812 457.376953,287.352051 453.940674,288.028259 
	C453.940674,288.028259 453.998444,288.003754 453.961609,287.698364 
	C453.258942,286.939270 452.593079,286.485565 451.927216,286.031891 
	C451.927216,286.031891 451.991760,286.008240 451.886658,285.798279 
	C451.493591,285.399475 451.205597,285.210693 450.917603,285.021912 
	C450.917603,285.021912 450.987549,285.010620 450.913605,284.812317 
	C450.687378,284.313293 450.458649,284.091339 450.153412,283.948181 
M154.950104,108.165810 
	C157.092361,98.649017 157.859634,89.125481 156.062393,79.408119 
	C153.214859,64.011963 144.958755,52.193085 132.703018,42.888489 
	C120.579308,33.684128 106.915955,30.189367 91.735291,30.856001 
	C78.262329,31.447643 66.533302,36.812153 56.883007,45.031357 
	C39.601212,59.750336 33.521793,79.298729 36.931187,101.861343 
	C40.040295,122.436760 52.268257,136.654694 69.409508,146.432693 
	C80.393959,152.698624 93.281128,154.793808 105.889114,151.829407 
	C129.571487,146.261200 146.323883,132.261429 154.950104,108.165810 
z"/>
<path fill="#C0E9FF" opacity="1.000000" stroke="none" 
	d="
M294.095520,488.350220 
	C345.672180,487.931152 397.422760,487.927551 449.651459,487.944275 
	C448.983246,488.309235 447.837250,488.954254 446.690582,488.955383 
	C396.541107,489.004608 346.391632,488.997803 296.242126,488.986542 
	C295.584595,488.986420 294.927032,488.842499 294.095520,488.350220 
z"/>
<path fill="#A9CCF2" opacity="1.000000" stroke="none" 
	d="
M274.070068,353.450348 
	C274.427979,354.224854 274.981293,355.467316 274.983551,356.710724 
	C275.030426,382.667236 275.019562,408.623871 274.993225,434.580444 
	C274.992218,435.554962 274.721344,436.529236 274.238068,437.760620 
	C273.936249,409.984650 273.972565,381.951691 274.070068,353.450348 
z"/>
<path fill="#A7C9F4" opacity="1.000000" stroke="none" 
	d="
M126.145187,351.397461 
	C148.602356,350.996887 171.266510,350.979431 193.930664,350.988586 
	C195.417358,350.989197 196.903946,351.193359 198.705566,351.578918 
	C174.797745,351.832306 150.574966,351.809540 126.145187,351.397461 
z"/>
<path fill="#A7CAF4" opacity="1.000000" stroke="none" 
	d="
M204.458893,351.899963 
	C204.580200,351.557190 205.167816,351.057404 205.754242,351.058777 
	C227.966522,351.110992 250.178711,351.209259 272.701172,351.582581 
	C250.315842,351.901428 227.620239,351.939056 204.458893,351.899963 
z"/>
<path fill="#E3FFFF" opacity="1.000000" stroke="none" 
	d="
M235.085709,456.344879 
	C245.657257,455.919403 256.395630,455.914246 267.609192,455.926758 
	C267.446472,456.299957 266.808044,456.965546 266.170654,456.964508 
	C255.864532,456.948120 245.558548,456.847076 235.085709,456.344879 
z"/>
<path fill="#A4D1FF" opacity="1.000000" stroke="none" 
	d="
M266.512878,439.118103 
	C260.973938,439.475677 254.975037,439.851410 248.970657,439.990021 
	C245.214096,440.076782 241.449310,439.806458 237.366058,439.440521 
	C246.712814,439.135101 256.381714,439.085571 266.512878,439.118103 
z"/>
<path fill="#77ACE9" opacity="1.000000" stroke="none" 
	d="
M454.111603,288.361389 
	C457.376953,287.352051 460.813232,286.675812 464.655884,286.014740 
	C462.202576,289.885651 458.687653,291.090759 454.111603,288.361389 
z"/>
<path fill="#77ACE9" opacity="1.000000" stroke="none" 
	d="
M477.361755,272.981750 
	C478.143402,271.734772 479.229919,270.377869 480.701752,269.036011 
	C479.946930,270.324646 478.806793,271.598236 477.361755,272.981750 
z"/>
<path fill="#77ACE9" opacity="1.000000" stroke="none" 
	d="
M467.067139,284.275665 
	C465.499969,281.683319 467.298065,281.236816 469.774506,281.006165 
	C469.219727,282.049194 468.263092,283.080658 467.067139,284.275665 
z"/>
<path fill="#77ACE9" opacity="1.000000" stroke="none" 
	d="
M451.968628,286.379089 
	C452.593079,286.485565 453.258942,286.939270 453.950317,287.727661 
	C453.320557,287.616974 452.665283,287.171631 451.968628,286.379089 
z"/>
<path fill="#A9CCF2" opacity="1.000000" stroke="none" 
	d="
M273.623657,437.930115 
	C272.893066,438.267395 271.776337,438.652557 270.273682,439.017456 
	C271.004333,438.657471 272.120911,438.317719 273.623657,437.930115 
z"/>
<path fill="#77ACE9" opacity="1.000000" stroke="none" 
	d="
M465.273651,285.999878 
	C465.318451,285.537720 465.609955,285.013855 466.196686,284.641541 
	C466.168060,285.174774 465.844177,285.556488 465.273651,285.999878 
z"/>
<path fill="#77ACE9" opacity="1.000000" stroke="none" 
	d="
M473.319641,278.046509 
	C473.194183,277.579376 473.364746,276.961914 473.821472,276.179993 
	C473.943665,276.642365 473.779663,277.269257 473.319641,278.046509 
z"/>
<path fill="#77ACE9" opacity="1.000000" stroke="none" 
	d="
M483.300049,267.033752 
	C483.226410,266.817841 483.417419,266.522461 483.860626,266.130188 
	C483.930115,266.340302 483.747406,266.647308 483.300049,267.033752 
z"/>
<path fill="#77ACE9" opacity="1.000000" stroke="none" 
	d="
M450.997742,285.280884 
	C451.205597,285.210693 451.493591,285.399475 451.881775,285.832275 
	C451.680603,285.897461 451.379242,285.718658 450.997742,285.280884 
z"/>
<path fill="#77ACE9" opacity="1.000000" stroke="none" 
	d="
M450.106323,284.226715 
	C450.458649,284.091339 450.687378,284.313293 450.906769,284.847107 
	C450.669006,284.888489 450.364136,284.696869 450.106323,284.226715 
z"/>
<path fill="#77ACE9" opacity="1.000000" stroke="none" 
	d="
M484.302063,266.029999 
	C484.239716,265.812439 484.447845,265.513000 484.919861,265.118652 
	C484.979980,265.331879 484.776276,265.640015 484.302063,266.029999 
z"/>
<path fill="#77ACE9" opacity="1.000000" stroke="none" 
	d="
M482.297058,268.029419 
	C482.223419,267.810333 482.416504,267.517487 482.861694,267.129456 
	C482.930420,267.341370 482.747070,267.648468 482.297058,268.029419 
z"/>
<path fill="#77ACE9" opacity="1.000000" stroke="none" 
	d="
M474.294617,276.024597 
	C474.219360,275.806610 474.409760,275.514343 474.849731,275.125305 
	C474.919617,275.335815 474.739960,275.643066 474.294617,276.024597 
z"/>
<path fill="#77ACE9" opacity="1.000000" stroke="none" 
	d="
M481.290527,269.018311 
	C481.219482,268.803619 481.412170,268.512939 481.854736,268.126129 
	C481.921112,268.334076 481.737701,268.638184 481.290527,269.018311 
z"/>
<path fill="#77ACE9" opacity="1.000000" stroke="none" 
	d="
M476.295135,274.024200 
	C476.219574,273.806366 476.409424,273.514038 476.848633,273.125031 
	C476.918854,273.335480 476.739685,273.642609 476.295135,274.024200 
z"/>
<path fill="#77ACE9" opacity="1.000000" stroke="none" 
	d="
M475.295227,275.024567 
	C475.219788,274.806671 475.409851,274.514313 475.849426,274.125305 
	C475.919525,274.335785 475.740112,274.642944 475.295227,275.024567 
z"/>
<path fill="#9AC8FF" opacity="1.000000" stroke="none" 
	d="
M304.706665,161.679413 
	C306.509491,178.290680 303.630981,193.339233 292.889618,206.047653 
	C284.023804,216.537003 272.768402,222.903275 258.981476,225.109543 
	C241.358704,227.929672 226.497849,222.233109 213.652191,210.890060 
	C204.115845,202.469223 198.718628,191.220139 197.171524,178.698257 
	C194.918167,160.459900 200.230209,144.307739 213.904007,131.750748 
	C237.799652,109.806732 272.613342,112.842850 292.900452,136.717682 
	C298.798431,143.658676 302.894501,152.024673 304.706665,161.679413 
z"/>
<path fill="#000000" opacity="1.000000" stroke="none" 
	d="
M139.007706,333.841370 
	C142.472244,317.704407 147.888382,302.427521 158.791733,289.634308 
	C165.111694,282.218903 170.974167,274.274292 178.117279,267.743286 
	C183.950958,262.409485 191.378052,258.818451 199.163712,253.763214 
	C197.384628,261.153381 194.969376,267.016235 194.797623,272.944061 
	C194.577759,280.532104 190.830917,285.385590 186.352463,290.831696 
	C181.249725,297.036957 181.704376,304.763031 186.185898,311.371613 
	C191.285370,318.891449 198.495880,323.070526 207.969376,320.923523 
	C215.535385,319.208801 220.434113,314.221039 222.972321,306.983521 
	C225.983841,298.396393 222.043030,287.717010 210.628143,282.169159 
	C210.900681,271.519257 214.210281,261.571442 219.461700,252.482040 
	C221.481110,248.986771 224.496628,245.477509 229.638046,244.626724 
	C250.269562,241.212723 270.432648,242.305038 290.129669,249.609131 
	C290.659851,249.805725 291.072968,250.318085 292.231049,251.222107 
	C282.159821,249.877289 274.323151,253.397049 269.732147,261.038177 
	C263.462128,271.473877 257.893768,282.487671 253.561890,293.840240 
	C252.181290,297.458344 255.736786,302.934021 256.951050,307.581268 
	C257.427307,309.403961 257.966614,311.285309 257.969910,313.140839 
	C257.976807,317.031708 257.838470,320.982269 261.985687,322.972717 
	C266.009369,324.903809 269.929688,324.569336 273.271606,321.252655 
	C275.163086,319.375488 276.916443,317.332214 278.962097,315.642303 
	C285.445526,310.286438 282.980438,302.634399 275.069336,300.099792 
	C270.880371,298.757721 269.852020,296.271912 271.836548,292.658112 
	C275.356232,286.248840 278.896484,279.844940 282.180664,273.314362 
	C284.236694,269.225983 287.307587,267.586609 291.745911,267.979156 
	C303.075745,268.981232 306.149323,272.142761 305.985199,283.295074 
	C305.900513,289.049347 305.123779,294.797729 305.136353,300.547729 
	C305.145477,304.719238 302.825104,306.561218 299.553650,308.052002 
	C295.147827,310.059692 290.651245,311.926117 286.442017,314.294586 
	C279.128174,318.410004 275.633972,325.238098 273.501556,333.598724 
	C261.040710,333.999359 249.085281,334.013763 237.129898,333.997314 
	C204.422501,333.952301 171.715103,333.894257 139.007706,333.841370 
z"/>
<path fill="#99C8FE" opacity="1.000000" stroke="none" 
	d="
M290.941925,351.885101 
	C290.943420,346.570953 290.918488,341.740204 290.956085,336.909943 
	C291.004486,330.689301 294.522614,327.197479 300.831329,327.049500 
	C301.663727,327.029968 302.496979,327.043640 303.329834,327.045166 
	C309.903656,327.057159 309.903595,327.057404 309.960602,333.698212 
	C310.030853,341.888214 314.773529,346.795898 322.851074,346.954315 
	C326.347656,347.022919 329.848328,347.027893 333.344421,346.945618 
	C340.572906,346.775452 345.770416,341.537628 345.980011,334.305878 
	C346.190308,327.049042 346.190369,327.049042 353.516571,327.045837 
	C353.683136,327.045776 353.849884,327.040497 354.016235,327.046600 
	C357.495209,327.173920 361.737244,326.160736 364.201508,327.807526 
	C366.033722,329.031891 365.533264,333.709656 366.122253,336.839813 
	C367.157593,342.342010 372.344910,346.752258 378.170532,346.942474 
	C381.997498,347.067444 385.834747,347.055420 389.662476,346.940857 
	C396.570679,346.734161 401.742523,341.466858 402.007751,334.514618 
	C402.292755,327.044189 402.292755,327.044189 409.819977,327.047302 
	C410.153137,327.047424 410.486542,327.039062 410.819397,327.049316 
	C413.971191,327.146454 417.912567,326.151520 420.033539,327.680664 
	C421.844360,328.986176 421.548981,333.195374 422.212433,336.113953 
	C423.411011,341.386688 426.098297,345.811096 431.791260,346.243896 
	C437.972351,346.713806 444.321777,346.529510 450.453094,345.636749 
	C456.096313,344.815033 457.752228,340.139923 458.099609,334.862061 
	C458.294678,331.898499 456.491241,327.718811 461.748566,327.065094 
	C469.467346,326.105286 476.120117,328.547394 476.792450,333.569611 
	C477.778442,340.934692 477.643372,348.456879 477.786713,355.915985 
	C477.799866,356.601715 476.481720,357.625793 475.588745,357.934662 
	C474.542877,358.296387 473.285583,358.060089 472.119995,358.060120 
	C413.653748,358.062500 355.187378,358.014130 296.721497,358.157074 
	C292.204193,358.168121 290.129852,357.046539 290.941925,351.885101 
z"/>
<path fill="#000000" opacity="1.000000" stroke="none" 
	d="
M291.944672,375.228088 
	C296.425323,375.143219 300.906006,374.985260 305.386658,374.984558 
	C362.250641,374.975891 419.114655,374.989807 476.485107,375.471008 
	C477.059875,392.602448 477.128204,409.260864 477.196533,425.919250 
	C477.196503,429.395782 477.196503,432.872314 477.196503,436.399414 
	C470.714172,439.221222 464.179932,438.206116 457.907013,437.886810 
	C446.769928,437.319885 442.097198,443.004791 442.032471,454.061401 
	C442.001312,459.383606 442.024445,464.706146 441.525513,470.513184 
	C404.779327,470.998566 368.530640,470.982819 332.281952,471.009460 
	C320.149994,471.018372 308.018066,471.135437 295.886139,471.203064 
	C294.568481,469.664703 293.250824,468.126343 291.949646,465.759552 
	C291.958954,435.030090 291.951813,405.129089 291.944672,375.228088 
M469.010529,383.987183 
	C469.010529,383.987183 469.082306,383.958801 468.948425,383.433746 
	C468.647949,383.254242 468.347443,383.074738 468.025299,382.971375 
	C468.025299,382.971375 468.102936,382.956055 467.958313,382.418732 
	C467.652008,382.227234 467.345703,382.035706 466.903778,381.434509 
	C466.738800,381.145447 466.492767,381.031891 465.791534,380.258698 
	C465.137421,380.171051 464.483307,380.006805 463.829193,380.006683 
	C411.009247,379.997162 358.189331,379.994080 305.369415,380.045532 
	C304.234039,380.046631 303.099213,380.685394 302.002625,380.974518 
	C302.002625,380.974518 301.947998,380.939575 301.448853,381.101410 
	C301.281921,381.396088 301.114990,381.690735 301.001892,382.000397 
	C301.001892,382.000397 300.988525,381.946106 300.356079,382.009735 
	C299.886108,382.329346 299.416138,382.648956 298.999512,382.998108 
	C298.999512,382.998108 298.967957,382.945862 298.341187,383.181335 
	C297.951447,384.133850 297.561707,385.086365 297.041107,386.449615 
	C297.041107,386.449615 297.042328,386.880646 296.219666,387.254059 
	C296.147705,410.545258 296.067596,433.836456 296.046143,457.127686 
	C296.045563,457.777191 296.672852,458.427277 297.016388,459.813446 
	C298.680145,461.489136 300.343872,463.164795 302.452057,464.972046 
	C302.452057,464.972046 302.911133,465.035736 303.366791,465.786560 
	C303.858643,465.855072 304.350494,465.983429 304.842377,465.983551 
	C344.082031,465.994232 383.321686,466.003571 422.561279,465.954468 
	C423.741608,465.952972 424.921173,465.331329 426.794220,464.976288 
	C428.195160,463.356018 429.596100,461.735748 431.774719,459.682861 
	C431.901062,450.451538 432.027374,441.220245 431.999908,432.008728 
	C431.999908,432.008728 432.021393,432.162292 432.951782,432.026245 
	C442.171509,432.016022 451.391663,432.048492 460.610474,431.952606 
	C462.106689,431.937103 463.596954,431.352905 465.746460,431.010468 
	C466.523590,430.357422 467.300720,429.704376 468.011353,429.010712 
	C468.011353,429.010712 468.033875,429.085297 468.556427,428.944641 
	C468.739227,428.645935 468.922028,428.347229 469.016052,428.021667 
	C469.016052,428.021667 469.073944,428.094086 469.808838,427.785797 
	C470.148712,425.195679 470.488617,422.605591 470.950775,419.346405 
	C470.910309,418.896576 470.869873,418.446777 470.990662,417.071350 
	C471.008362,407.526276 471.060120,397.980988 470.999878,388.436401 
	C470.992523,387.270142 470.384613,386.107727 470.001099,384.997772 
	C470.001099,384.997772 470.068665,384.962006 469.949524,384.433411 
	C469.646942,384.261139 469.344330,384.088867 469.010529,383.987183 
z"/>
<path fill="#000000" opacity="1.000000" stroke="none" 
	d="
M338.293945,282.737854 
	C344.491699,291.872223 350.431030,300.753815 356.386108,309.658997 
	C351.051208,313.030701 347.032043,311.394165 346.009705,306.336121 
	C345.141693,302.041534 340.225342,298.217194 335.138275,298.061676 
	C331.325226,297.945068 327.505768,298.038605 323.175537,298.038605 
	C321.907318,287.502106 326.941254,276.630951 320.312256,266.711060 
	C321.035675,266.238190 321.759094,265.765289 322.482513,265.292389 
	C327.666870,271.023285 332.851196,276.754211 338.293945,282.737854 
z"/>
<path fill="#6B9FE0" opacity="1.000000" stroke="none" 
	d="
M441.962830,471.923035 
	C440.590057,472.283173 439.217621,472.956573 437.844421,472.958130 
	C391.719727,473.011353 345.594940,473.003204 299.470184,472.980713 
	C298.497253,472.980225 297.524445,472.706085 296.742981,472.275879 
	C345.277222,471.969177 393.620026,471.946106 441.962830,471.923035 
z"/>
<path fill="#B9E8FF" opacity="1.000000" stroke="none" 
	d="
M441.962341,471.681885 
	C393.620026,471.946106 345.277222,471.969177 296.465820,471.959259 
	C295.997253,471.926300 295.959717,471.561859 295.922913,471.382477 
	C308.018066,471.135437 320.149994,471.018372 332.281952,471.009460 
	C368.530640,470.982819 404.779327,470.998566 441.492065,470.978088 
	C441.956116,470.958405 441.961853,471.440704 441.962341,471.681885 
z"/>
<path fill="#FFFFFF" opacity="1.000000" stroke="none" 
	d="
M139.176270,334.246826 
	C171.715103,333.894257 204.422501,333.952301 237.129898,333.997314 
	C249.085281,334.013763 261.040710,333.999359 273.456757,333.993164 
	C272.751282,334.336884 271.585480,334.990875 270.418945,334.992188 
	C227.539062,335.040710 184.659103,335.030762 141.779160,335.009460 
	C140.967651,335.009064 140.156265,334.776520 139.176270,334.246826 
z"/>
<path fill="#FDFFFF" opacity="1.000000" stroke="none" 
	d="
M291.632935,375.478577 
	C291.951813,405.129089 291.958954,435.030090 291.890442,465.380066 
	C291.533722,464.580872 291.009613,463.333099 291.007446,462.084412 
	C290.959015,434.113525 290.964996,406.142517 290.981049,378.171539 
	C290.981506,377.357300 291.202881,376.543213 291.632935,375.478577 
z"/>
<path fill="#000000" opacity="1.000000" stroke="none" 
	d="
M325.954102,318.236023 
	C326.832184,316.693329 327.711456,315.624969 328.590729,314.556641 
	C329.061584,314.842529 329.532471,315.128448 330.003326,315.414368 
	C330.003326,319.698151 330.182983,323.994659 329.881744,328.257141 
	C329.802734,329.375336 328.232452,330.388123 327.347015,331.449310 
	C326.883118,331.159851 326.419220,330.870422 325.955322,330.580963 
	C325.955322,326.624115 325.955322,322.667236 325.954102,318.236023 
z"/>
<path fill="#ACD7FF" opacity="1.000000" stroke="none" 
	d="
M477.451477,425.601105 
	C477.128204,409.260864 477.059875,392.602448 476.947693,375.477722 
	C477.267365,375.700989 477.949402,376.391266 477.947876,377.080078 
	C477.912170,393.147797 477.802460,409.215363 477.451477,425.601105 
z"/>
<path fill="#000000" opacity="1.000000" stroke="none" 
	d="
M382.010315,322.992249 
	C382.006317,321.201569 381.813110,319.850494 382.048920,318.579041 
	C382.277435,317.346710 382.946991,316.196167 383.422852,315.009705 
	C383.965027,316.132935 384.920349,317.236542 384.974792,318.382935 
	C385.166626,322.421600 385.049347,326.474945 385.049347,331.115143 
	C379.531494,330.758301 383.003052,325.939148 382.010315,322.992249 
z"/>
<path fill="#000000" opacity="1.000000" stroke="none" 
	d="
M442.191742,326.094543 
	C441.046875,327.525269 444.090729,331.657349 439.108704,329.879456 
	C439.022675,324.374512 439.055817,319.680511 439.088928,314.986481 
	C439.088928,314.986481 438.982697,315.010040 439.366150,315.018555 
	C440.498718,315.058380 441.247772,315.089752 441.996857,315.121094 
	C441.996857,315.121094 442.021423,315.012177 442.011414,315.457642 
	C442.064850,319.300232 442.128296,322.697388 442.191742,326.094543 
z"/>
<path fill="#90C6FF" opacity="1.000000" stroke="none" 
	d="
M204.581055,304.607056 
	C202.838333,303.539581 201.005051,302.522858 200.234711,300.976562 
	C199.904190,300.313110 201.539825,298.057068 202.744919,297.462433 
	C203.517426,297.081207 206.165253,298.385071 206.181107,298.981201 
	C206.229218,300.789398 205.405334,302.620850 204.581055,304.607056 
z"/>
<path fill="#8CC8FF" opacity="1.000000" stroke="none" 
	d="
M463.265320,457.216492 
	C462.018494,458.267578 461.034393,459.052032 459.410126,460.346832 
	C459.410126,457.884766 459.410126,456.227844 459.410126,454.597351 
	C464.679352,453.608368 464.679352,453.608368 463.265320,457.216492 
z"/>
<path fill="#A1CEFB" opacity="1.000000" stroke="none" 
	d="
M438.750977,315.240112 
	C439.055817,319.680511 439.022675,324.374512 438.916992,329.531097 
	C438.700623,325.160370 438.556824,320.327057 438.750977,315.240112 
z"/>
<path fill="#A1CEFB" opacity="1.000000" stroke="none" 
	d="
M442.449219,325.770081 
	C442.128296,322.697388 442.064850,319.300232 441.957397,315.443481 
	C442.177856,318.471130 442.442261,321.958374 442.449219,325.770081 
z"/>
<path fill="#A1CEFB" opacity="1.000000" stroke="none" 
	d="
M441.863373,314.812073 
	C441.247772,315.089752 440.498718,315.058380 439.376556,315.071960 
	C439.912292,314.912292 440.821106,314.707672 441.863373,314.812073 
z"/>
<path fill="#000000" opacity="1.000000" stroke="none" 
	d="
M154.775452,108.544479 
	C146.323883,132.261429 129.571487,146.261200 105.889114,151.829407 
	C93.281128,154.793808 80.393959,152.698624 69.409508,146.432693 
	C52.268257,136.654694 40.040295,122.436760 36.931187,101.861343 
	C33.521793,79.298729 39.601212,59.750336 56.883007,45.031357 
	C66.533302,36.812153 78.262329,31.447643 91.735291,30.856001 
	C106.915955,30.189367 120.579308,33.684128 132.703018,42.888489 
	C144.958755,52.193085 153.214859,64.011963 156.062393,79.408119 
	C157.859634,89.125481 157.092361,98.649017 154.775452,108.544479 
M88.003250,93.914696 
	C88.787575,94.977058 89.354477,96.382278 90.394325,97.041695 
	C94.613106,99.717003 98.998260,102.128105 103.282616,104.702293 
	C109.453850,108.410179 115.493690,112.349045 121.775467,115.856461 
	C126.169449,118.309830 131.662537,116.559525 133.787155,112.537506 
	C136.155273,108.054543 134.505478,103.657982 129.450302,100.848152 
	C126.035294,98.949997 122.592255,97.091301 119.270546,95.038902 
	C114.536400,92.113792 109.901978,89.027306 105.016289,85.087631 
	C105.011185,73.854637 105.043098,62.621361 104.956444,51.388996 
	C104.944977,49.903214 104.329361,48.422092 103.985977,46.191662 
	C101.855446,41.363098 97.557808,41.760830 93.525070,42.150494 
	C90.318726,42.460308 88.340614,44.513977 87.231728,48.244892 
	C87.151321,62.585865 87.056763,76.926819 87.037437,91.267868 
	C87.036575,91.902740 87.721786,92.538536 88.003250,93.914696 
z"/>
<path fill="#59A4FC" opacity="1.000000" stroke="none" 
	d="
M297.042328,386.880646 
	C297.042328,386.880646 297.041107,386.449615 297.439331,386.166016 
	C298.214325,384.903564 298.591125,383.924713 298.967957,382.945862 
	C298.967957,382.945862 298.999512,382.998108 299.283142,382.980377 
	C300.040649,382.623779 300.514587,382.284943 300.988525,381.946106 
	C300.988525,381.946106 301.001892,382.000397 301.211060,381.894104 
	C301.596191,381.505096 301.772095,381.222321 301.947998,380.939575 
	C301.947998,380.939575 302.002625,380.974518 302.329803,381.026733 
	C303.118011,381.119415 303.579010,381.159821 304.360779,381.451477 
	C305.333466,381.799896 305.985443,381.981995 306.637451,381.982178 
	C358.152069,381.995605 409.666687,382.000244 461.181274,381.963257 
	C462.446716,381.962341 463.711792,381.487762 465.272461,381.184143 
	C465.767151,381.120728 465.966431,381.107269 466.165710,381.093842 
	C466.492767,381.031891 466.738800,381.145447 467.062134,381.896301 
	C467.514679,382.557434 467.808807,382.756744 468.102936,382.956055 
	C468.102936,382.956055 468.025299,382.971375 468.124329,383.181885 
	C468.509705,383.581207 468.796021,383.769989 469.082306,383.958801 
	C469.082306,383.958801 469.010529,383.987183 469.113159,384.197632 
	C469.500092,384.592743 469.784393,384.777374 470.068665,384.962006 
	C470.068665,384.962006 470.001099,384.997772 470.002655,385.442261 
	C470.004303,392.353119 469.905029,398.821564 470.039673,405.285156 
	C470.128021,409.526062 470.554413,413.759918 470.829407,417.996948 
	C470.869873,418.446777 470.910309,418.896576 470.645752,419.959900 
	C469.918488,423.080292 469.496216,425.587189 469.073944,428.094086 
	C469.073944,428.094086 469.016052,428.021667 468.812134,428.124969 
	C468.416779,428.513947 468.225342,428.799622 468.033875,429.085297 
	C468.033875,429.085297 468.011353,429.010712 467.616089,429.018219 
	C458.528961,429.354828 449.834961,429.638489 441.146576,430.042603 
	C438.753632,430.153870 436.377380,430.624725 433.682983,430.977570 
	C432.922119,431.403778 432.471741,431.783020 432.021393,432.162292 
	C432.021393,432.162292 431.999908,432.008728 431.734497,432.256927 
	C431.311707,441.708588 431.154358,450.912018 430.997040,460.115479 
	C429.596100,461.735748 428.195160,463.356018 425.971008,464.977966 
	C384.402252,464.998322 343.656677,465.017029 302.911133,465.035736 
	C302.911133,465.035736 302.452057,464.972046 302.066956,464.602570 
	C298.287811,460.318085 297.887512,455.697937 297.931793,450.716980 
	C298.102081,431.561401 298.018799,412.403290 297.966248,393.246338 
	C297.961365,391.470734 297.505096,389.696411 297.186768,387.664917 
	C297.090881,387.232483 297.066620,387.056580 297.042328,386.880646 
M319.610291,449.969971 
	C323.755768,449.969360 327.920532,449.720001 332.041199,450.039368 
	C336.012634,450.347198 337.585297,448.931824 337.010406,445.005280 
	C336.867859,444.031250 336.989288,443.018555 336.989319,442.023651 
	C336.989868,431.006134 336.989868,431.006165 326.169739,431.006104 
	C312.974060,431.006073 313.153595,431.009277 312.916443,444.192017 
	C312.836151,448.653137 313.953827,450.792603 319.610291,449.969971 
M415.944611,434.862274 
	C416.079712,432.132141 414.768646,430.945129 412.054138,430.994720 
	C408.241455,431.064423 404.425812,430.956207 400.612396,431.003723 
	C390.577362,431.128693 392.032196,429.745361 392.002777,439.767548 
	C391.969604,451.086761 390.679535,449.943604 401.980682,449.964142 
	C415.951050,449.989532 415.951080,449.966095 415.944611,434.862274 
M352.938446,441.473450 
	C352.938538,442.472321 353.068817,443.491577 352.916382,444.466614 
	C352.230225,448.855194 353.949921,450.458313 358.416443,450.048889 
	C362.543823,449.670563 366.743622,449.782013 370.891968,450.019684 
	C374.813568,450.244415 376.085785,448.729675 376.106323,444.818481 
	C376.179016,431.006683 376.302338,431.007324 362.404510,431.008026 
	C352.939667,431.008514 352.939667,431.008514 352.938446,441.473450 
M454.994019,411.273529 
	C454.992767,410.110260 454.991913,408.947021 454.990204,407.783752 
	C454.974182,396.967102 454.974152,396.967072 444.382385,396.967621 
	C430.028992,396.968384 430.083466,396.965057 430.976410,411.509125 
	C431.127716,413.973816 431.781677,415.141541 434.437531,415.085236 
	C440.251251,414.961945 446.075897,415.185272 451.879639,414.914337 
	C452.953400,414.864227 453.949768,413.156586 454.994019,411.273529 
M327.463318,396.969177 
	C323.807556,396.971191 320.134186,396.771576 316.505951,397.088684 
	C315.296661,397.194397 313.242035,398.593658 313.215302,399.452698 
	C313.061798,404.385193 313.401672,409.333099 313.574219,414.275757 
	C317.654663,414.534515 321.734894,414.796539 325.815796,415.047913 
	C326.312439,415.078491 326.812561,415.052124 327.311066,415.052185 
	C336.991455,415.052826 337.049377,415.052399 336.971741,405.335266 
	C336.894440,395.658508 338.288544,397.126434 327.463318,396.969177 
M391.985199,411.278564 
	C391.680786,414.037506 392.826813,415.264038 395.678192,415.085114 
	C398.166321,414.928986 400.671906,415.048187 403.169800,415.051056 
	C416.292664,415.066223 416.292664,415.066803 415.950928,401.885010 
	C415.946625,401.718567 415.937683,401.550903 415.951813,401.385590 
	C416.224396,398.193756 414.803131,396.847687 411.571320,396.940613 
	C406.746094,397.079376 401.893158,397.249023 397.090759,396.888794 
	C392.729431,396.561676 391.525726,398.348114 391.929810,402.342712 
	C392.196625,404.980194 391.981323,407.666443 391.985199,411.278564 
M352.941498,404.551941 
	C352.942108,406.384583 353.129150,408.240417 352.905029,410.045135 
	C352.416779,413.976868 353.900696,415.399323 357.911682,415.127533 
	C362.721130,414.801605 367.570801,414.982391 372.400452,415.077301 
	C374.830688,415.125061 376.152008,414.428375 376.056305,411.708130 
	C375.921661,407.880920 376.268097,404.019440 375.869690,400.229248 
	C375.746124,399.053680 373.938751,397.229248 372.784241,397.134094 
	C368.315826,396.765808 363.799774,396.969635 359.301483,396.971283 
	C352.965973,396.973572 352.965973,396.977722 352.941498,404.551941 
z"/>
<path fill="#DDF0FF" opacity="1.000000" stroke="none" 
	d="
M465.978638,380.676270 
	C465.966431,381.107269 465.767151,381.120728 464.811249,381.101532 
	C431.650391,381.046753 399.246155,380.995850 366.841919,381.012848 
	C345.907928,381.023865 324.973999,381.134338 304.040039,381.200226 
	C303.579010,381.159821 303.118011,381.119415 302.310547,381.052856 
	C303.099213,380.685394 304.234039,380.046631 305.369415,380.045532 
	C358.189331,379.994080 411.009247,379.997162 463.829193,380.006683 
	C464.483307,380.006805 465.137421,380.171051 465.978638,380.676270 
z"/>
<path fill="#88AFE4" opacity="1.000000" stroke="none" 
	d="
M303.138977,465.411133 
	C343.656677,465.017029 384.402252,464.998322 425.624451,464.989197 
	C424.921173,465.331329 423.741608,465.952972 422.561279,465.954468 
	C383.321686,466.003571 344.082031,465.994232 304.842377,465.983551 
	C304.350494,465.983429 303.858643,465.855072 303.138977,465.411133 
z"/>
<path fill="#68A2E2" opacity="1.000000" stroke="none" 
	d="
M297.258392,387.921478 
	C297.505096,389.696411 297.961365,391.470734 297.966248,393.246338 
	C298.018799,412.403290 298.102081,431.561401 297.931793,450.716980 
	C297.887512,455.697937 298.287811,460.318085 301.844727,464.536804 
	C300.343872,463.164795 298.680145,461.489136 297.017578,458.971252 
	C297.016113,455.639374 297.003052,453.149719 297.012512,450.660095 
	C297.092133,429.747223 297.175873,408.834351 297.258392,387.921478 
z"/>
<path fill="#D2FFFF" opacity="1.000000" stroke="none" 
	d="
M297.186768,387.664917 
	C297.175873,408.834351 297.092133,429.747223 297.012512,450.660095 
	C297.003052,453.149719 297.016113,455.639374 297.013062,458.603058 
	C296.672852,458.427277 296.045563,457.777191 296.046143,457.127686 
	C296.067596,433.836456 296.147705,410.545258 296.630981,387.067352 
	C297.066620,387.056580 297.090881,387.232483 297.186768,387.664917 
z"/>
<path fill="#68A2E2" opacity="1.000000" stroke="none" 
	d="
M433.993469,430.930603 
	C436.377380,430.624725 438.753632,430.153870 441.146576,430.042603 
	C449.834961,429.638489 458.528961,429.354828 467.649353,429.038544 
	C467.300720,429.704376 466.523590,430.357422 464.944000,431.012451 
	C454.092194,430.986511 444.042816,430.958557 433.993469,430.930603 
z"/>
<path fill="#9CC2EF" opacity="1.000000" stroke="none" 
	d="
M433.682983,430.977570 
	C444.042816,430.958557 454.092194,430.986511 464.615753,431.023041 
	C463.596954,431.352905 462.106689,431.937103 460.610474,431.952606 
	C451.391663,432.048492 442.171509,432.016022 432.486572,432.094269 
	C432.471741,431.783020 432.922119,431.403778 433.682983,430.977570 
z"/>
<path fill="#68A2E2" opacity="1.000000" stroke="none" 
	d="
M470.910034,417.534149 
	C470.554413,413.759918 470.128021,409.526062 470.039673,405.285156 
	C469.905029,398.821564 470.004303,392.353119 470.029602,385.415100 
	C470.384613,386.107727 470.992523,387.270142 470.999878,388.436401 
	C471.060120,397.980988 471.008362,407.526276 470.910034,417.534149 
z"/>
<path fill="#9AC2EF" opacity="1.000000" stroke="none" 
	d="
M431.385864,459.899170 
	C431.154358,450.912018 431.311707,441.708588 431.811401,432.247009 
	C432.027374,441.220245 431.901062,450.451538 431.385864,459.899170 
z"/>
<path fill="#68A2E2" opacity="1.000000" stroke="none" 
	d="
M469.441406,427.939941 
	C469.496216,425.587189 469.918488,423.080292 470.584656,420.294434 
	C470.488617,422.605591 470.148712,425.195679 469.441406,427.939941 
z"/>
<path fill="#68A2E2" opacity="1.000000" stroke="none" 
	d="
M298.654572,383.063599 
	C298.591125,383.924713 298.214325,384.903564 297.504761,385.960632 
	C297.561707,385.086365 297.951447,384.133850 298.654572,383.063599 
z"/>
<path fill="#68A2E2" opacity="1.000000" stroke="none" 
	d="
M300.672302,381.977905 
	C300.514587,382.284943 300.040649,382.623779 299.256470,382.965637 
	C299.416138,382.648956 299.886108,382.329346 300.672302,381.977905 
z"/>
<path fill="#68A2E2" opacity="1.000000" stroke="none" 
	d="
M301.698425,381.020508 
	C301.772095,381.222321 301.596191,381.505096 301.184174,381.886597 
	C301.114990,381.690735 301.281921,381.396088 301.698425,381.020508 
z"/>
<path fill="#68A2E2" opacity="1.000000" stroke="none" 
	d="
M469.015381,383.696289 
	C468.796021,383.769989 468.509705,383.581207 468.135193,383.143860 
	C468.347443,383.074738 468.647949,383.254242 469.015381,383.696289 
z"/>
<path fill="#68A2E2" opacity="1.000000" stroke="none" 
	d="
M468.295166,429.014954 
	C468.225342,428.799622 468.416779,428.513947 468.856537,428.138367 
	C468.922028,428.347229 468.739227,428.645935 468.295166,429.014954 
z"/>
<path fill="#68A2E2" opacity="1.000000" stroke="none" 
	d="
M468.030640,382.687378 
	C467.808807,382.756744 467.514679,382.557434 467.129944,382.101135 
	C467.345703,382.035706 467.652008,382.227234 468.030640,382.687378 
z"/>
<path fill="#68A2E2" opacity="1.000000" stroke="none" 
	d="
M470.009094,384.697693 
	C469.784393,384.777374 469.500092,384.592743 469.128784,384.162354 
	C469.344330,384.088867 469.646942,384.261139 470.009094,384.697693 
z"/>
<path fill="#5BA3F8" opacity="1.000000" stroke="none" 
	d="
M105.224953,86.009758 
	C109.901978,89.027306 114.536400,92.113792 119.270546,95.038902 
	C122.592255,97.091301 126.035294,98.949997 129.450302,100.848152 
	C134.505478,103.657982 136.155273,108.054543 133.787155,112.537506 
	C131.662537,116.559525 126.169449,118.309830 121.775467,115.856461 
	C115.493690,112.349045 109.453850,108.410179 103.282616,104.702293 
	C98.998260,102.128105 94.613106,99.717003 90.394325,97.041695 
	C89.354477,96.382278 88.787575,94.977058 88.046387,93.060280 
	C88.082405,77.437302 88.075287,62.668739 88.068169,47.900177 
	C88.340614,44.513977 90.318726,42.460308 93.525070,42.150494 
	C97.557808,41.760830 101.855446,41.363098 103.990784,47.038490 
	C103.993347,58.940800 103.939972,69.996765 104.044044,81.051247 
	C104.059631,82.707642 104.812927,84.357094 105.224953,86.009758 
z"/>
<path fill="#CFFFFF" opacity="1.000000" stroke="none" 
	d="
M87.649948,48.072533 
	C88.075287,62.668739 88.082405,77.437302 88.088470,92.689880 
	C87.721786,92.538536 87.036575,91.902740 87.037437,91.267868 
	C87.056763,76.926819 87.151321,62.585865 87.649948,48.072533 
z"/>
<path fill="#A7D0FF" opacity="1.000000" stroke="none" 
	d="
M105.120621,85.548691 
	C104.812927,84.357094 104.059631,82.707642 104.044044,81.051247 
	C103.939972,69.996765 103.993347,58.940800 103.994568,47.412064 
	C104.329361,48.422092 104.944977,49.903214 104.956444,51.388996 
	C105.043098,62.621361 105.011185,73.854637 105.120621,85.548691 
z"/>
<path fill="#97C7FF" opacity="1.000000" stroke="none" 
	d="
M319.129883,449.969543 
	C313.953827,450.792603 312.836151,448.653137 312.916443,444.192017 
	C313.153595,431.009277 312.974060,431.006073 326.169739,431.006104 
	C336.989868,431.006165 336.989868,431.006134 336.989319,442.023651 
	C336.989288,443.018555 336.867859,444.031250 337.010406,445.005280 
	C337.585297,448.931824 336.012634,450.347198 332.041199,450.039368 
	C327.920532,449.720001 323.755768,449.969360 319.129883,449.969543 
z"/>
<path fill="#96C7FE" opacity="1.000000" stroke="none" 
	d="
M415.946625,435.327454 
	C415.951080,449.966095 415.951050,449.989532 401.980682,449.964142 
	C390.679535,449.943604 391.969604,451.086761 392.002777,439.767548 
	C392.032196,429.745361 390.577362,431.128693 400.612396,431.003723 
	C404.425812,430.956207 408.241455,431.064423 412.054138,430.994720 
	C414.768646,430.945129 416.079712,432.132141 415.946625,435.327454 
z"/>
<path fill="#98C7FF" opacity="1.000000" stroke="none" 
	d="
M352.938354,440.986359 
	C352.939667,431.008514 352.939667,431.008514 362.404510,431.008026 
	C376.302338,431.007324 376.179016,431.006683 376.106323,444.818481 
	C376.085785,448.729675 374.813568,450.244415 370.891968,450.019684 
	C366.743622,449.782013 362.543823,449.670563 358.416443,450.048889 
	C353.949921,450.458313 352.230225,448.855194 352.916382,444.466614 
	C353.068817,443.491577 352.938538,442.472321 352.938354,440.986359 
z"/>
<path fill="#98C8FF" opacity="1.000000" stroke="none" 
	d="
M454.987946,411.743744 
	C453.949768,413.156586 452.953400,414.864227 451.879639,414.914337 
	C446.075897,415.185272 440.251251,414.961945 434.437531,415.085236 
	C431.781677,415.141541 431.127716,413.973816 430.976410,411.509125 
	C430.083466,396.965057 430.028992,396.968384 444.382385,396.967621 
	C454.974152,396.967072 454.974182,396.967102 454.990204,407.783752 
	C454.991913,408.947021 454.992767,410.110260 454.987946,411.743744 
z"/>
<path fill="#98C8FE" opacity="1.000000" stroke="none" 
	d="
M327.955231,396.969482 
	C338.288544,397.126434 336.894440,395.658508 336.971741,405.335266 
	C337.049377,415.052399 336.991455,415.052826 327.311066,415.052185 
	C326.812561,415.052124 326.312439,415.078491 325.815796,415.047913 
	C321.734894,414.796539 317.654663,414.534515 313.574219,414.275757 
	C313.401672,409.333099 313.061798,404.385193 313.215302,399.452698 
	C313.242035,398.593658 315.296661,397.194397 316.505951,397.088684 
	C320.134186,396.771576 323.807556,396.971191 327.955231,396.969482 
z"/>
<path fill="#98C8FE" opacity="1.000000" stroke="none" 
	d="
M391.983551,410.804718 
	C391.981323,407.666443 392.196625,404.980194 391.929810,402.342712 
	C391.525726,398.348114 392.729431,396.561676 397.090759,396.888794 
	C401.893158,397.249023 406.746094,397.079376 411.571320,396.940613 
	C414.803131,396.847687 416.224396,398.193756 415.951813,401.385590 
	C415.937683,401.550903 415.946625,401.718567 415.950928,401.885010 
	C416.292664,415.066803 416.292664,415.066223 403.169800,415.051056 
	C400.671906,415.048187 398.166321,414.928986 395.678192,415.085114 
	C392.826813,415.264038 391.680786,414.037506 391.983551,410.804718 
z"/>
<path fill="#99C8FE" opacity="1.000000" stroke="none" 
	d="
M352.941650,404.067169 
	C352.965973,396.977722 352.965973,396.973572 359.301483,396.971283 
	C363.799774,396.969635 368.315826,396.765808 372.784241,397.134094 
	C373.938751,397.229248 375.746124,399.053680 375.869690,400.229248 
	C376.268097,404.019440 375.921661,407.880920 376.056305,411.708130 
	C376.152008,414.428375 374.830688,415.125061 372.400452,415.077301 
	C367.570801,414.982391 362.721130,414.801605 357.911682,415.127533 
	C353.900696,415.399323 352.416779,413.976868 352.905029,410.045135 
	C353.129150,408.240417 352.942108,406.384583 352.941650,404.067169 
z"/>
<path fill="#68A2E2" opacity="1.000000" stroke="none" 
	d="
M304.360779,381.451477 
	C324.973999,381.134338 345.907928,381.023865 366.841919,381.012848 
	C399.246155,380.995850 431.650391,381.046753 464.515839,381.151459 
	C463.711792,381.487762 462.446716,381.962341 461.181274,381.963257 
	C409.666687,382.000244 358.152069,381.995605 306.637451,381.982178 
	C305.985443,381.981995 305.333466,381.799896 304.360779,381.451477 
z"/>
</svg>